HIERARCHY
ROOT Hips
{
	OFFSET 0.000000 0.000000 0.000000
	CHANNELS 6 Xposition Yposition Zposition Xrotation Yrotation Zrotation
	JOINT LeftUpLeg_virtual
	{
		OFFSET 0.000000 0.000000 0.000000
		CHANNELS 3 Xrotation Yrotation Zrotation
		JOINT LeftUpLeg
		{
			OFFSET 11.394100 -6.187798 -0.413800
			CHANNELS 3 Xrotation Yrotation Zrotation
			JOINT LeftLeg
			{
				OFFSET 0.430247 -32.302673 3.732800
				CHANNELS 3 Xrotation Yrotation Zrotation
				JOINT LeftFoot
				{
					OFFSET -0.430247 -48.264931 -6.423300
					CHANNELS 3 Xrotation Yrotation Zrotation
					JOINT LeftToeBase
					{
						OFFSET 4.230900 -16.068199 23.438400
						CHANNELS 3 Xrotation Yrotation Zrotation
						JOINT LeftToe_End
						{
							OFFSET 4.510700 0.695400 19.974600
							CHANNELS 3 Xrotation Yrotation Zrotation
							End Site
							{
								OFFSET 0 0 0
							}
						}
					}
				}
			}
		}
	}
	JOINT RightUpLeg_virtual
	{
		OFFSET 0.000000 0.000000 0.000000
		CHANNELS 3 Xrotation Yrotation Zrotation
		JOINT RightUpLeg
		{
			OFFSET -11.333700 -6.187798 -0.413800
			CHANNELS 3 Xrotation Yrotation Zrotation
			JOINT RightLeg
			{
				OFFSET -0.430392 -32.302628 3.733000
				CHANNELS 3 Xrotation Yrotation Zrotation
				JOINT RightFoot
				{
					OFFSET 0.430392 -48.264973 -6.423500
					CHANNELS 3 Xrotation Yrotation Zrotation
					JOINT RightToeBase
					{
						OFFSET -4.230900 -16.068199 23.438400
						CHANNELS 3 Xrotation Yrotation Zrotation
						JOINT RightToe_End
						{
							OFFSET -4.510700 0.695400 19.974600
							CHANNELS 3 Xrotation Yrotation Zrotation
							End Site
							{
								OFFSET 0 0 0
							}
						}
					}
				}
			}
		}
	}
	JOINT Spine_virtual
	{
		OFFSET 0.000000 0.000000 0.000000
		CHANNELS 3 Xrotation Yrotation Zrotation
		JOINT Spine
		{
			OFFSET -0.002400 12.777504 0.315300
			CHANNELS 3 Xrotation Yrotation Zrotation
			JOINT Spine1
			{
				OFFSET -0.002067 5.816869 0.032633
				CHANNELS 3 Xrotation Yrotation Zrotation
				JOINT Spine1_split
				{
					OFFSET -0.002067 5.816869 0.032633
					CHANNELS 3 Xrotation Yrotation Zrotation
					JOINT Spine2
					{
						OFFSET -0.002067 5.816869 0.032633
						CHANNELS 3 Xrotation Yrotation Zrotation
						JOINT Neck_virtual
						{
							OFFSET 0.000000 0.000000 0.000000
							CHANNELS 3 Xrotation Yrotation Zrotation
							JOINT Neck
							{
								OFFSET -0.003700 21.199493 -0.826900
								CHANNELS 3 Xrotation Yrotation Zrotation
								JOINT Head
								{
									OFFSET 0.000000 20.442200 4.834800
									CHANNELS 3 Xrotation Yrotation Zrotation
									JOINT HeadTop_End
									{
										OFFSET 0.000000 34.668396 4.968400
										CHANNELS 3 Xrotation Yrotation Zrotation
										End Site
										{
											OFFSET 0 0 0
										}
									}
								}
							}
						}
						JOINT LeftShoulder_virtual
						{
							OFFSET 0.000000 0.000000 0.000000
							CHANNELS 3 Xrotation Yrotation Zrotation
							JOINT LeftShoulder
							{
								OFFSET 3.288150 8.794197 -1.372250
								CHANNELS 3 Xrotation Yrotation Zrotation
								JOINT LeftShoulder_split
								{
									OFFSET 3.288150 8.794197 -1.372250
									CHANNELS 3 Xrotation Yrotation Zrotation
									JOINT LeftArm
									{
										OFFSET 11.953299 -2.279007 -0.146200
										CHANNELS 3 Xrotation Yrotation Zrotation
										JOINT LeftForeArm
										{
											OFFSET 18.448900 0.000000 0.000000
											CHANNELS 3 Xrotation Yrotation Zrotation
											JOINT LeftHand
											{
												OFFSET 29.527798 0.000000 0.000000
												CHANNELS 3 Xrotation Yrotation Zrotation
												End Site
												{
													OFFSET 0 0 0
												}
											}
										}
									}
								}
							}
						}
						JOINT RightShoulder_virtual
						{
							OFFSET 0.000000 0.000000 0.000000
							CHANNELS 3 Xrotation Yrotation Zrotation
							JOINT RightShoulder
							{
								OFFSET -3.249400 8.794197 -1.372250
								CHANNELS 3 Xrotation Yrotation Zrotation
								JOINT RightShoulder_split
								{
									OFFSET -3.249400 8.794197 -1.372250
									CHANNELS 3 Xrotation Yrotation Zrotation
									JOINT RightArm
									{
										OFFSET -11.953299 -2.279007 -0.146200
										CHANNELS 3 Xrotation Yrotation Zrotation
										JOINT RightForeArm
										{
											OFFSET -18.448900 0.000000 0.000000
											CHANNELS 3 Xrotation Yrotation Zrotation
											JOINT RightHand
											{
												OFFSET -29.527802 0.000000 0.000000
												CHANNELS 3 Xrotation Yrotation Zrotation
												End Site
												{
													OFFSET 0 0 0
												}
											}
										}
									}
								}
							}
						}
					}
				}
			}
		}
	}
}
MOTION
Frames: 6
Frame Time: 0.03333333
-0.068411 85.303497 -0.138233 0.000000 0.000000 0.000000 -5.289862 -45.134382 -0.059713 -38.933598 5.287460 17.886047 58.809869 -5.660282 4.384342 -17.445886 -8.502707 -15.880122 -1.594033 -0.000010 0.000001 0.000000 0.000000 0.000000 -5.289862 -45.134382 -0.059713 -29.904914 -7.026594 -29.148987 58.363352 -9.468048 -7.709536 -19.429067 -5.380549 23.115197 -0.013000 0.000007 0.000003 0.000000 0.000000 0.000000 -5.289862 -45.134382 -0.059713 9.456609 7.225526 -1.652133 2.187718 0.989894 -0.915630 0.000000 0.000000 0.000000 0.000000 0.000000 0.000000 2.202832 0.982771 -0.894151 0.084651 13.220554 4.538680 8.920925 20.138135 -4.130230 0.000000 0.000000 0.000000 2.202832 0.982771 -0.894151 1.117178 3.546354 -8.633311 0.000000 0.000000 0.000000 -53.487017 4.935510 -51.503000 -179.999800 -73.641918 -179.999773 0.000000 0.000000 0.000000 2.202832 0.982771 -0.894151 3.036127 13.027199 -5.371408 0.000000 0.000000 0.000000 -48.713712 27.172837 83.457064 179.999786 74.011698 -179.999786 0.000000 0.000000 0.000000 
-0.092805 85.036606 -0.638901 0.000000 0.000000 0.000000 -5.526264 -45.690537 -0.233177 -40.196141 4.535846 18.083044 60.469748 -5.258056 4.551588 -16.072787 -8.315334 -16.219590 -2.695578 -0.000007 0.000002 0.000000 0.000000 0.000000 -5.526264 -45.690537 -0.233177 -30.848833 -6.992472 -28.998968 59.194190 -8.782500 -8.027800 -19.688657 -5.324254 23.075922 -0.027971 0.000005 -0.000006 0.000000 0.000000 0.000000 -5.526264 -45.690537 -0.233177 9.504106 7.381586 -1.359531 2.197573 1.027116 -0.862106 0.000000 0.000000 0.000000 0.000000 0.000000 0.000000 2.211434 1.021828 -0.841506 0.080981 13.269773 4.242635 8.681401 20.313042 -4.292197 0.000000 0.000000 0.000000 2.211434 1.021828 -0.841506 1.116596 3.696306 -8.750947 0.000000 0.000000 0.000000 -52.843022 5.031856 -51.853461 -179.999841 -73.327606 -179.999841 0.000000 0.000000 0.000000 2.211434 1.021828 -0.841506 3.025578 13.532530 -5.623951 0.000000 0.000000 0.000000 -48.207762 26.760167 82.252990 -179.999937 73.525730 179.999937 0.000000 0.000000 0.000000 
-0.003366 84.731194 -0.965088 0.000000 0.000000 0.000000 -5.875759 -46.310916 -0.524706 -41.557002 3.705981 18.230709 62.576383 -4.766778 4.620466 -14.656046 -8.213266 -16.404035 -4.139767 -0.000003 0.001020 0.000000 0.000000 0.000000 -5.875759 -46.310916 -0.524706 -31.849374 -7.012868 -28.907492 60.076377 -7.928099 -8.491922 -19.923122 -5.265580 22.874589 -0.146107 0.000015 -0.000002 0.000000 0.000000 0.000000 -5.875759 -46.310916 -0.524706 9.613001 7.432288 -1.046713 2.222426 1.037147 -0.807830 0.000000 0.000000 0.000000 0.000000 0.000000 0.000000 2.235495 1.033578 -0.787907 0.080274 13.306639 4.005495 8.469499 20.449938 -4.482505 0.000000 0.000000 0.000000 2.235495 1.033578 -0.787907 1.125278 3.798834 -8.856256 0.000000 0.000000 0.000000 -52.285880 5.109666 -52.166041 179.999950 -73.175054 179.999964 0.000000 0.000000 0.000000 2.235495 1.033578 -0.787907 2.994921 13.960745 -5.866394 0.000000 0.000000 0.000000 -47.791042 26.394204 81.130899 -179.999991 72.940451 -180.000005 0.000000 0.000000 0.000000 
0.176205 84.374077 -1.071415 0.000000 0.000000 0.000000 -6.334912 -46.923885 -0.923634 -43.156912 2.718149 18.311834 65.253770 -4.223362 4.595919 -13.030246 -8.349158 -16.429754 -6.310939 -0.000100 0.004356 0.000000 0.000000 0.000000 -6.334912 -46.923885 -0.923634 -32.728743 -7.075926 -28.917515 60.878692 -6.911973 -9.070006 -20.123899 -5.229335 22.783049 -0.239944 -0.000021 -0.000001 0.000000 0.000000 0.000000 -6.334912 -46.923885 -0.923634 9.760042 7.336596 -0.696018 2.257128 1.009198 -0.750957 0.000000 0.000000 0.000000 0.000000 0.000000 0.000000 2.269904 1.007358 -0.731401 0.084701 13.322992 3.842696 8.332901 20.574113 -4.777901 0.000000 0.000000 0.000000 2.269904 1.007358 -0.731401 1.163461 3.821058 -8.986289 0.000000 0.000000 0.000000 -51.810687 5.177645 -52.410094 -179.999841 -73.065580 -179.999841 0.000000 0.000000 0.000000 2.269904 1.007358 -0.731401 2.943687 14.300189 -6.058949 0.000000 0.000000 0.000000 -47.450578 26.165220 80.055124 -179.999882 72.262336 179.999896 0.000000 0.000000 0.000000 
0.434123 83.951561 -0.968903 0.000000 0.000000 0.000000 -6.887496 -47.481703 -1.429817 -44.960492 1.637367 18.450424 68.284010 -3.675284 4.453078 -11.266488 -9.021748 -16.301233 -8.799961 -0.000680 0.016828 0.000000 0.000000 0.000000 -6.887496 -47.481703 -1.429817 -33.480833 -7.168539 -29.011085 61.631474 -5.831934 -9.754098 -20.292782 -5.226377 22.847145 -0.241305 -0.000001 -0.000002 0.000000 0.000000 0.000000 -6.887496 -47.481703 -1.429817 9.986794 7.141933 -0.232970 2.308900 0.953281 -0.674972 0.000000 0.000000 0.000000 0.000000 0.000000 0.000000 2.321653 0.953458 -0.655526 0.043458 13.333720 3.685101 8.232809 20.679409 -5.183428 0.000000 0.000000 0.000000 2.321653 0.953458 -0.655526 1.234245 3.772994 -9.161642 0.000000 0.000000 0.000000 -51.384845 5.170392 -52.573537 -179.999950 -72.884969 -179.999937 0.000000 0.000000 0.000000 2.321653 0.953458 -0.655526 2.852591 14.410086 -6.345798 0.000000 0.000000 0.000000 -47.309886 25.994136 79.222674 -179.999855 71.582029 179.999841 0.000000 0.000000 0.000000 
0.786269 83.458969 -0.660534 0.000000 0.000000 0.000000 -7.543465 -48.021407 -2.072012 -46.836885 0.611613 18.717413 71.479289 -3.226890 4.261422 -9.582385 -10.346032 -15.960870 -11.394196 -0.003861 0.056252 0.000000 0.000000 0.000000 -7.543465 -48.021407 -2.072012 -34.093176 -7.060492 -29.477747 62.467100 -4.610989 -10.019876 -20.455138 -5.112484 22.851480 -0.224415 0.000003 -0.000003 0.000000 0.000000 0.000000 -7.543465 -48.021407 -2.072012 10.270831 6.929489 0.325033 2.371352 0.890414 -0.581115 0.000000 0.000000 0.000000 0.000000 0.000000 0.000000 2.384086 0.893103 -0.561744 0.058551 13.343928 3.471464 8.105730 20.729423 -5.537469 0.000000 0.000000 0.000000 2.384086 0.893103 -0.561744 1.334706 3.639688 -9.362889 0.000000 0.000000 0.000000 -51.060251 5.134136 -52.617230 -179.999991 -72.790631 -179.999991 0.000000 0.000000 0.000000 2.384086 0.893103 -0.561744 2.758136 14.518078 -6.511334 0.000000 0.000000 0.000000 -47.260541 25.787562 78.332673 179.999964 70.883341 -179.999978 0.000000 0.000000 0.000000 
